<svg id="visual" viewBox="0 0 900 600" width="900" height="600" xmlns="http://www.w3.org/2000/svg" xmlns:xlink="http://www.w3.org/1999/xlink" version="1.1"><g stroke-width="1" stroke-linejoin="bevel"><path d="M465 323L361 396L474 390Z" fill="#0c111f" stroke="#0c111f"></path><path d="M465 323L373 303L361 396Z" fill="#101a29" stroke="#101a29"></path><path d="M373 303L323 324L361 396Z" fill="#0f1725" stroke="#0f1725"></path><path d="M323 324L286 369L361 396Z" fill="#070918" stroke="#070918"></path><path d="M291 522L417 515L361 396Z" fill="#111f30" stroke="#111f30"></path><path d="M361 396L417 515L474 390Z" fill="#111f30" stroke="#111f30"></path><path d="M417 515L506 495L474 390Z" fill="#112233" stroke="#112233"></path><path d="M586 224L491 222L465 323Z" fill="#0f1725" stroke="#0f1725"></path><path d="M598 384L465 323L474 390Z" fill="#000011" stroke="#000011"></path><path d="M465 323L414 192L373 303Z" fill="#101c2c" stroke="#101c2c"></path><path d="M373 303L305 172L323 324Z" fill="#070918" stroke="#070918"></path><path d="M491 222L414 192L465 323Z" fill="#000011" stroke="#000011"></path><path d="M215 296L229 370L286 369Z" fill="#101a29" stroke="#101a29"></path><path d="M506 495L598 384L474 390Z" fill="#112233" stroke="#112233"></path><path d="M215 296L286 369L323 324Z" fill="#000011" stroke="#000011"></path><path d="M286 369L291 522L361 396Z" fill="#000011" stroke="#000011"></path><path d="M229 370L291 522L286 369Z" fill="#070918" stroke="#070918"></path><path d="M305 172L215 296L323 324Z" fill="#111f30" stroke="#111f30"></path><path d="M598 384L619 302L465 323Z" fill="#101a29" stroke="#101a29"></path><path d="M619 302L586 224L465 323Z" fill="#0f1725" stroke="#0f1725"></path><path d="M491 222L487 71L414 192Z" fill="#0e1422" stroke="#0e1422"></path><path d="M414 192L305 172L373 303Z" fill="#112233" stroke="#112233"></path><path d="M494 600L599 494L506 495Z" fill="#0c111f" stroke="#0c111f"></path><path d="M506 495L599 494L598 384Z" fill="#112233" stroke="#112233"></path><path d="M598 384L679 389L619 302Z" fill="#112233" stroke="#112233"></path><path d="M291 522L387 600L417 515Z" fill="#070918" stroke="#070918"></path><path d="M417 515L494 600L506 495Z" fill="#030515" stroke="#030515"></path><path d="M387 600L494 600L417 515Z" fill="#0e1422" stroke="#0e1422"></path><path d="M414 192L335 121L305 172Z" fill="#070918" stroke="#070918"></path><path d="M305 172L167 233L215 296Z" fill="#070918" stroke="#070918"></path><path d="M395 61L335 121L414 192Z" fill="#0c111f" stroke="#0c111f"></path><path d="M117 403L201 508L229 370Z" fill="#070918" stroke="#070918"></path><path d="M229 370L201 508L291 522Z" fill="#112233" stroke="#112233"></path><path d="M291 522L263 600L387 600Z" fill="#0c111f" stroke="#0c111f"></path><path d="M599 494L679 389L598 384Z" fill="#0c111f" stroke="#0c111f"></path><path d="M619 302L677 300L586 224Z" fill="#0f1725" stroke="#0f1725"></path><path d="M679 389L677 300L619 302Z" fill="#0e1422" stroke="#0e1422"></path><path d="M228 79L167 233L305 172Z" fill="#101a29" stroke="#101a29"></path><path d="M215 296L117 403L229 370Z" fill="#0e1422" stroke="#0e1422"></path><path d="M201 508L263 600L291 522Z" fill="#0f1725" stroke="#0f1725"></path><path d="M562 87L491 222L586 224Z" fill="#0c111f" stroke="#0c111f"></path><path d="M562 87L487 71L491 222Z" fill="#101c2c" stroke="#101c2c"></path><path d="M85 267L117 403L215 296Z" fill="#112233" stroke="#112233"></path><path d="M201 508L178 600L263 600Z" fill="#0e1422" stroke="#0e1422"></path><path d="M487 71L395 61L414 192Z" fill="#111f30" stroke="#111f30"></path><path d="M335 121L228 79L305 172Z" fill="#0f1725" stroke="#0f1725"></path><path d="M494 600L616 600L599 494Z" fill="#101c2c" stroke="#101c2c"></path><path d="M599 494L683 538L679 389Z" fill="#0a0d1b" stroke="#0a0d1b"></path><path d="M696 121L562 87L586 224Z" fill="#030515" stroke="#030515"></path><path d="M616 600L683 538L599 494Z" fill="#070918" stroke="#070918"></path><path d="M835 209L708 164L677 300Z" fill="#0a0d1b" stroke="#0a0d1b"></path><path d="M104 600L178 600L201 508Z" fill="#101c2c" stroke="#101c2c"></path><path d="M265 0L228 79L335 121Z" fill="#0f1725" stroke="#0f1725"></path><path d="M228 79L127 182L167 233Z" fill="#070918" stroke="#070918"></path><path d="M167 233L85 267L215 296Z" fill="#101c2c" stroke="#101c2c"></path><path d="M127 182L85 267L167 233Z" fill="#0f1725" stroke="#0f1725"></path><path d="M677 300L708 164L586 224Z" fill="#070918" stroke="#070918"></path><path d="M823 330L677 300L679 389Z" fill="#070918" stroke="#070918"></path><path d="M395 61L368 0L335 121Z" fill="#000011" stroke="#000011"></path><path d="M524 0L368 0L395 61Z" fill="#111f30" stroke="#111f30"></path><path d="M524 0L395 61L487 71Z" fill="#070918" stroke="#070918"></path><path d="M0 377L67 488L117 403Z" fill="#101c2c" stroke="#101c2c"></path><path d="M117 403L67 488L201 508Z" fill="#0e1422" stroke="#0e1422"></path><path d="M708 164L696 121L586 224Z" fill="#0a0d1b" stroke="#0a0d1b"></path><path d="M562 87L524 0L487 71Z" fill="#0e1422" stroke="#0e1422"></path><path d="M638 0L524 0L562 87Z" fill="#112233" stroke="#112233"></path><path d="M67 488L104 600L201 508Z" fill="#0e1422" stroke="#0e1422"></path><path d="M733 600L778 516L683 538Z" fill="#101a29" stroke="#101a29"></path><path d="M683 538L778 516L679 389Z" fill="#111f30" stroke="#111f30"></path><path d="M368 0L265 0L335 121Z" fill="#070918" stroke="#070918"></path><path d="M228 79L104 95L127 182Z" fill="#0c111f" stroke="#0c111f"></path><path d="M616 600L733 600L683 538Z" fill="#000011" stroke="#000011"></path><path d="M831 438L823 330L679 389Z" fill="#030515" stroke="#030515"></path><path d="M708 164L804 103L696 121Z" fill="#0a0d1b" stroke="#0a0d1b"></path><path d="M208 0L104 95L228 79Z" fill="#111f30" stroke="#111f30"></path><path d="M0 219L0 293L85 267Z" fill="#000011" stroke="#000011"></path><path d="M85 267L0 377L117 403Z" fill="#0e1422" stroke="#0e1422"></path><path d="M67 488L0 600L104 600Z" fill="#101c2c" stroke="#101c2c"></path><path d="M0 293L0 377L85 267Z" fill="#0e1422" stroke="#0e1422"></path><path d="M265 0L208 0L228 79Z" fill="#0a0d1b" stroke="#0a0d1b"></path><path d="M778 516L831 438L679 389Z" fill="#112233" stroke="#112233"></path><path d="M900 465L831 438L778 516Z" fill="#030515" stroke="#030515"></path><path d="M0 219L85 267L127 182Z" fill="#0c111f" stroke="#0c111f"></path><path d="M691 0L638 0L696 121Z" fill="#0a0d1b" stroke="#0a0d1b"></path><path d="M696 121L638 0L562 87Z" fill="#0c111f" stroke="#0c111f"></path><path d="M0 377L0 488L67 488Z" fill="#112233" stroke="#112233"></path><path d="M104 95L0 219L127 182Z" fill="#0f1725" stroke="#0f1725"></path><path d="M823 330L835 209L677 300Z" fill="#0a0d1b" stroke="#0a0d1b"></path><path d="M900 273L835 209L823 330Z" fill="#070918" stroke="#070918"></path><path d="M733 600L800 600L778 516Z" fill="#101c2c" stroke="#101c2c"></path><path d="M761 0L691 0L696 121Z" fill="#0c111f" stroke="#0c111f"></path><path d="M835 209L804 103L708 164Z" fill="#0c111f" stroke="#0c111f"></path><path d="M0 488L0 600L67 488Z" fill="#000011" stroke="#000011"></path><path d="M208 0L105 0L104 95Z" fill="#000011" stroke="#000011"></path><path d="M104 95L0 66L0 219Z" fill="#111f30" stroke="#111f30"></path><path d="M900 465L900 400L831 438Z" fill="#0c111f" stroke="#0c111f"></path><path d="M831 438L900 400L823 330Z" fill="#0a0d1b" stroke="#0a0d1b"></path><path d="M835 209L900 198L804 103Z" fill="#101a29" stroke="#101a29"></path><path d="M900 400L900 273L823 330Z" fill="#000011" stroke="#000011"></path><path d="M900 600L900 465L778 516Z" fill="#0e1422" stroke="#0e1422"></path><path d="M900 0L761 0L804 103Z" fill="#0f1725" stroke="#0f1725"></path><path d="M804 103L761 0L696 121Z" fill="#0f1725" stroke="#0f1725"></path><path d="M105 0L0 66L104 95Z" fill="#0e1422" stroke="#0e1422"></path><path d="M900 273L900 198L835 209Z" fill="#0f1725" stroke="#0f1725"></path><path d="M800 600L900 600L778 516Z" fill="#111f30" stroke="#111f30"></path><path d="M105 0L0 0L0 66Z" fill="#111f30" stroke="#111f30"></path><path d="M900 198L900 80L804 103Z" fill="#0e1422" stroke="#0e1422"></path><path d="M900 80L900 0L804 103Z" fill="#0a0d1b" stroke="#0a0d1b"></path></g></svg>